<svg xmlns="http://www.w3.org/2000/svg" width="192" height="192" viewBox="0 0 192 192"><path fill="#09324B" d="M10.667 95.934c-1.65-.01-2.048-.973-.883-2.143L65.21 38.127c1.164-1.17 2.116-.776 2.116.874v10c0 1.65-.955 3.955-2.12 5.12l-39.76 39.76c-1.165 1.165-3.47 2.112-5.12 2.104l-9.66-.05z"/><path fill="#FF1744" d="M20.326 96.016c1.65-.01 3.955.94 5.12 2.105l39.76 39.76c1.165 1.165 2.12 3.47 2.12 5.12v10c0 1.65-.952 2.043-2.117.874L9.783 98.21c-1.165-1.17-.768-2.134.883-2.143l9.66-.05z"/><path fill="#09324B" d="M181.577 96.067c1.65.01 2.048.973.883 2.142l-55.425 55.664c-1.165 1.17-2.117.776-2.117-.874v-10c0-1.65.955-3.955 2.12-5.12l39.76-39.76c1.165-1.165 3.47-2.113 5.12-2.104l9.66.05z"/><path fill="#FF1744" d="M171.918 95.984c-1.65.01-3.955-.938-5.12-2.105l-39.76-39.76c-1.165-1.166-2.12-3.47-2.12-5.12V39c0-1.65.953-2.043 2.117-.874L182.46 93.79c1.165 1.17.767 2.134-.883 2.143l-9.66.05z"/><path fill="#09324B" d="M121 52c1.65.018 2.396 1.24 1.658 2.714l-41.316 82.603C80.604 138.793 78.65 140 77 140h-6c-1.65 0-2.397-1.208-1.66-2.684l41.32-82.723c.736-1.476 2.69-2.67 4.34-2.653l6 .06z"/><g><path fill="#09324B" d="M60.413 113.288c9.74 19.894 33.592 28.78 53.752 19.182 20.16-9.6 28.69-34.67 18.95-54.556 0 0-.404.198-.42.163l-70.81 34.494c.017.034-1.49.684-1.472.718z"/><path fill="#0D3A6E" d="M60.03 112.78c10.708 18.83 30.96 22.134 51.12 12.536 20.163-9.602 31.633-27.41 21.893-47.297-.017-.04-.037-.07-.054-.107L59.98 112.68c.018.032.03.066.05.1z"/><path fill="#2962FF" d="M133.188 78.017L60.032 112.78s10.264 19.577 47.365 4.47c0 0 31.315-12.126 25.79-39.233z"/><path fill="#FF1744" d="M78.916 59.755c-20.095 9.74-28.377 33.708-18.503 53.533l72.774-35.27c-9.876-19.825-34.176-28-54.27-18.263z"/><linearGradient id="af" gradientUnits="userSpaceOnUse" x1="59.966" y1="95.955" x2="137.168" y2="95.955"><stop offset="0" stop-color="#263238" stop-opacity=".2"/><stop offset="1" stop-color="#263238" stop-opacity="0"/></linearGradient><path fill="url(#af)" d="M133.09 78.5l-.33.174c-.09-.202-.187-.4-.28-.6l.413-.212c-4.682-9.912-12.78-16.912-22.088-20.217S90.975 54.73 81.452 59.6c-9.523 4.87-16.248 13.296-19.42 22.984s-2.798 20.636 1.882 30.548l.422-.215.01.023a.333.333 0 0 0-.074.06c.167.374.35.735.525 1.1l-.428.224c4.75 9.875 12.9 16.81 22.232 20.04 9.333 3.23 19.85 2.755 29.336-2.19 9.488-4.945 16.153-13.428 19.258-23.14 3.103-9.714 2.648-20.658-2.105-30.533z"/></g><g><circle opacity=".26" fill="#212121" cx="129.08" cy="49.209" r="2.5"/><circle fill="#EEE" cx="129.08" cy="48.209" r="2.5"/><circle opacity=".26" fill="#212121" cx="62.913" cy="143.667" r="2.5"/><circle fill="#EEE" cx="62.913" cy="142.458" r="2.5"/></g></svg>